<svg width="41" height="40" viewBox="0 0 41 40" fill="none" xmlns="http://www.w3.org/2000/svg">
<rect width="41" height="40" fill="black"/>
<path d="M30.3125 17.5938H23.2812V10.5625C23.2812 9.69971 22.5815 9 21.7188 9H20.1562C19.2935 9 18.5938 9.69971 18.5938 10.5625V17.5938H11.5625C10.6997 17.5938 10 18.2935 10 19.1562V20.7188C10 21.5815 10.6997 22.2812 11.5625 22.2812H18.5938V29.3125C18.5938 30.1753 19.2935 30.875 20.1562 30.875H21.7188C22.5815 30.875 23.2812 30.1753 23.2812 29.3125V22.2812H30.3125C31.1753 22.2812 31.875 21.5815 31.875 20.7188V19.1562C31.875 18.2935 31.1753 17.5938 30.3125 17.5938Z" fill="white"/>
</svg>
