<svg width="25" height="25" viewBox="0 0 25 25" fill="none" xmlns="http://www.w3.org/2000/svg">
<path d="M24.2188 12.1094C24.2188 18.7988 18.7988 24.2188 12.1094 24.2188C10.8594 24.2188 9.6582 24.0283 8.52539 23.6768C9.01856 22.8711 9.75586 21.5527 10.0293 20.5029C10.1758 19.9365 10.7813 17.6221 10.7813 17.6221C11.1768 18.374 12.3291 19.0137 13.5547 19.0137C17.207 19.0137 19.8389 15.6543 19.8389 11.4795C19.8389 7.48047 16.5723 4.4873 12.373 4.4873C7.14844 4.4873 4.37012 7.99316 4.37012 11.8164C4.37012 13.5938 5.31738 15.8057 6.82617 16.5088C7.05566 16.6162 7.17773 16.5674 7.23145 16.3477C7.27051 16.1816 7.47559 15.3564 7.56836 14.9756C7.59766 14.8535 7.58301 14.7461 7.48535 14.6289C6.99219 14.0186 6.5918 12.9053 6.5918 11.8652C6.5918 9.19434 8.61328 6.61133 12.0605 6.61133C15.0342 6.61133 17.1191 8.6377 17.1191 11.5381C17.1191 14.8145 15.4639 17.085 13.3105 17.085C12.124 17.085 11.2305 16.1035 11.5186 14.8975C11.8604 13.457 12.5195 11.9043 12.5195 10.8643C12.5195 9.93652 12.0215 9.16016 10.9863 9.16016C9.77051 9.16016 8.79395 10.415 8.79395 12.0996C8.79395 13.1738 9.15527 13.8965 9.15527 13.8965C9.15527 13.8965 7.95898 18.9648 7.73926 19.9121C7.49512 20.957 7.59277 22.4316 7.69531 23.3887C3.19336 21.626 0 17.2412 0 12.1094C0 5.41992 5.41992 0 12.1094 0C18.7988 0 24.2188 5.41992 24.2188 12.1094Z" fill="black"/>
</svg>
