<svg width="27" height="27" viewBox="0 0 27 27" fill="black" xmlns="http://www.w3.org/2000/svg">
<path d="M0 11.5714H11.5714V0H0V11.5714ZM3.85714 3.85714H7.71429V7.71429H3.85714V3.85714ZM15.4286 0V11.5714H27V0H15.4286ZM23.1429 7.71429H19.2857V3.85714H23.1429V7.71429ZM0 27H11.5714V15.4286H0V27ZM3.85714 19.2857H7.71429V23.1429H3.85714V19.2857ZM25.0714 15.4286H27V23.1429H21.2143V21.2143H19.2857V27H15.4286V15.4286H21.2143V17.3571H25.0714V15.4286ZM25.0714 25.0714H27V27H25.0714V25.0714ZM21.2143 25.0714H23.1429V27H21.2143V25.0714Z" fill="white"/>
</svg>
