<svg width="24" height="22" viewBox="0 0 24 22" fill="none" xmlns="http://www.w3.org/2000/svg">
<path d="M20.5834 8.37891C19.8509 8.37891 19.2064 8.68164 18.7328 9.15527C16.9896 7.94922 14.641 7.17285 12.0384 7.08984L13.391 0.996094L17.6976 1.96289C17.6976 3.01758 18.557 3.87695 19.6117 3.87695C20.6859 3.87695 21.5502 2.99316 21.5502 1.93848C21.5502 0.883789 20.6908 0 19.6117 0C18.8597 0 18.2103 0.454102 17.888 1.07422L13.1322 0.0195312C12.8929 -0.0439453 12.6586 0.126953 12.5951 0.366211L11.1107 7.08496C8.52769 7.19238 6.20348 7.96875 4.45543 9.17481C3.9818 8.68164 3.31285 8.37891 2.58043 8.37891C-0.134415 8.37891 -1.02309 12.0215 1.46226 13.2666C1.37437 13.6523 1.33531 14.0625 1.33531 14.4727C1.33531 18.5645 5.94469 21.8799 11.6039 21.8799C17.2875 21.8799 21.8968 18.5645 21.8968 14.4727C21.8968 14.0625 21.8529 13.6328 21.7455 13.2471C24.182 11.9971 23.2836 8.37891 20.5834 8.37891ZM5.40269 13.5254C5.40269 12.4512 6.26207 11.5869 7.34117 11.5869C8.39586 11.5869 9.25523 12.4463 9.25523 13.5254C9.25523 14.5801 8.39586 15.4395 7.34117 15.4395C6.26695 15.4443 5.40269 14.5801 5.40269 13.5254ZM15.8666 18.0908C14.0892 19.8682 9.07457 19.8682 7.29723 18.0908C7.10191 17.9199 7.10191 17.6172 7.29723 17.4219C7.46812 17.251 7.77086 17.251 7.94176 17.4219C9.29918 18.8135 13.8011 18.8379 15.2171 17.4219C15.388 17.251 15.6908 17.251 15.8617 17.4219C16.0619 17.6172 16.0619 17.9199 15.8666 18.0908ZM15.8275 15.4443C14.7728 15.4443 13.9134 14.585 13.9134 13.5303C13.9134 12.4561 14.7728 11.5918 15.8275 11.5918C16.9017 11.5918 17.766 12.4512 17.766 13.5303C17.7611 14.5801 16.9017 15.4443 15.8275 15.4443Z" fill="black"/>
</svg>
