<svg width="22" height="22" viewBox="0 0 22 22" fill="none" xmlns="http://www.w3.org/2000/svg">
<path d="M19.5312 0H2.34375C1.0498 0 0 1.0498 0 2.34375V19.5312C0 20.8252 1.0498 21.875 2.34375 21.875H19.5312C20.8252 21.875 21.875 20.8252 21.875 19.5312V2.34375C21.875 1.0498 20.8252 0 19.5312 0ZM15.5127 17.7832C15.0977 18.2275 13.9893 18.75 12.5391 18.75C8.85254 18.75 8.05176 16.04 8.05176 14.458V10.0635H6.60156C6.43555 10.0635 6.29883 9.92676 6.29883 9.76074V7.68555C6.29883 7.46582 6.43555 7.27051 6.64551 7.19727C8.54004 6.52832 9.13086 4.87793 9.21875 3.62305C9.24316 3.28613 9.41895 3.125 9.70703 3.125H11.8701C12.0361 3.125 12.1729 3.26172 12.1729 3.42773V6.94336H14.707C14.873 6.94336 15.0098 7.08008 15.0098 7.24609V9.74121C15.0098 9.90723 14.873 10.0439 14.707 10.0439H12.1631V14.1113C12.1631 15.1562 12.8857 15.7471 14.2383 15.2051C14.3848 15.1465 14.5117 15.1074 14.6289 15.1367C14.7363 15.1611 14.8047 15.2393 14.8535 15.376L15.5273 17.3389C15.5762 17.4951 15.625 17.666 15.5127 17.7832Z" fill="black"/>
</svg>
